<svg xmlns="http://www.w3.org/2000/svg" x="0px" y="0px"
width="30" height="30"
viewBox="0,0,256,256"
style="fill:#000000;">
<g fill="#e6eff8" fill-rule="nonzero" stroke="none" stroke-width="1" stroke-linecap="butt" stroke-linejoin="miter" stroke-miterlimit="10" stroke-dasharray="" stroke-dashoffset="0" font-family="none" font-weight="none" font-size="none" text-anchor="none" style="mix-blend-mode: normal"><path d="M0,256v-256h256v256z" id="bgRectangle"></path></g><g fill="#1565c0" fill-rule="nonzero" stroke="none" stroke-width="1" stroke-linecap="butt" stroke-linejoin="miter" stroke-miterlimit="10" stroke-dasharray="" stroke-dashoffset="0" font-family="none" font-weight="none" font-size="none" text-anchor="none" style="mix-blend-mode: normal"><g transform="scale(5.12,5.12)"><path d="M3,8c-0.72127,-0.0102 -1.39216,0.36875 -1.75578,0.99175c-0.36361,0.623 -0.36361,1.39351 0,2.01651c0.36361,0.623 1.0345,1.00195 1.75578,0.99175h44c0.72127,0.0102 1.39216,-0.36875 1.75578,-0.99175c0.36361,-0.623 0.36361,-1.39351 0,-2.01651c-0.36361,-0.623 -1.0345,-1.00195 -1.75578,-0.99175zM3,23c-0.72127,-0.0102 -1.39216,0.36875 -1.75578,0.99175c-0.36361,0.623 -0.36361,1.39351 0,2.01651c0.36361,0.623 1.0345,1.00195 1.75578,0.99175h44c0.72127,0.0102 1.39216,-0.36875 1.75578,-0.99175c0.36361,-0.623 0.36361,-1.39351 0,-2.01651c-0.36361,-0.623 -1.0345,-1.00195 -1.75578,-0.99175zM3,38c-0.72127,-0.0102 -1.39216,0.36875 -1.75578,0.99175c-0.36361,0.623 -0.36361,1.39351 0,2.01651c0.36361,0.623 1.0345,1.00195 1.75578,0.99175h44c0.72127,0.0102 1.39216,-0.36875 1.75578,-0.99175c0.36361,-0.623 0.36361,-1.39351 0,-2.01651c-0.36361,-0.623 -1.0345,-1.00195 -1.75578,-0.99175z"></path></g></g>
</svg>